<?xml version="1.0" encoding="utf-8"?>
<!-- Generator: Adobe Illustrator 22.0.1, SVG Export Plug-In . SVG Version: 6.00 Build 0)  -->
<svg version="1.1" id="Layer_1" xmlns="http://www.w3.org/2000/svg" xmlns:xlink="http://www.w3.org/1999/xlink" x="0px" y="0px"
	 viewBox="0 0 24 24" style="enable-background:new 0 0 24 24;" xml:space="preserve">
<path d="M4,22v-7.5H2.5V9c0-1.1,0.9-2,2-2h3c1.1,0,2,0.9,2,2v5.5H8V22H4z M20.5,22v-6h3L21,8.4c-0.3-0.8-1-1.4-1.9-1.4h-0.1
	c-0.9,0-1.6,0.6-1.9,1.4L14.5,16h3v6H20.5z M6,6c1.1,0,2-0.9,2-2S7.1,2,6,2S4,2.9,4,4S4.9,6,6,6z M19,6c1.1,0,2-0.9,2-2s-0.9-2-2-2
	s-2,0.9-2,2S17.9,6,19,6z"/>
<g>
	<path d="M10.7,22v-4.3H9.9v-3.1c0-0.6,0.5-1.1,1.1-1.1h1.7c0.6,0,1.1,0.5,1.1,1.1v3.1H13V22H10.7z"/>
	<circle cx="11.9" cy="11.7" r="1.1"/>
</g>
</svg>
